<?xml version="1.0" encoding="UTF-8" standalone="no"?>
<svg
   version="1.1"
   viewBox="-10 0 578 1000"
   id="svg6"
   sodipodi:docname="n_Elettronike-Regular.svg"
   inkscape:version="1.2.2 (b0a8486541, 2022-12-01)"
   xmlns:inkscape="http://www.inkscape.org/namespaces/inkscape"
   xmlns:sodipodi="http://sodipodi.sourceforge.net/DTD/sodipodi-0.dtd"
   xmlns="http://www.w3.org/2000/svg"
   xmlns:svg="http://www.w3.org/2000/svg">
  <defs
     id="defs10" />
  <sodipodi:namedview
     id="namedview8"
     pagecolor="#ffffff"
     bordercolor="#000000"
     borderopacity="0.25"
     inkscape:showpageshadow="2"
     inkscape:pageopacity="0.0"
     inkscape:pagecheckerboard="0"
     inkscape:deskcolor="#d1d1d1"
     showgrid="false"
     showguides="true"
     inkscape:zoom="1.57"
     inkscape:cx="82.802548"
     inkscape:cy="293.94904"
     inkscape:window-width="1854"
     inkscape:window-height="1011"
     inkscape:window-x="26"
     inkscape:window-y="23"
     inkscape:window-maximized="0"
     inkscape:current-layer="g4">
    <sodipodi:guide
       position="165,603"
       orientation="1,0"
       id="guide239"
       inkscape:locked="false" />
    <sodipodi:guide
       position="332,695"
       orientation="0,-1"
       id="guide391"
       inkscape:locked="false" />
    <sodipodi:guide
       position="313,629"
       orientation="0,-1"
       id="guide393"
       inkscape:locked="false" />
  </sodipodi:namedview>
  <g
     transform="matrix(1 0 0 -1 0 800)"
     id="g4">
    <path
       fill="currentColor"
       d="M 116,-7 C 90,-7 76,8 76,35 v 417 c 0,27 14,41 39,41 26,0 40,-14 40,-41 V 436.06255 C 197.86402,484.89357 249,495 322,495 438,495 495,433 495,303 V 35 C 495,8 480,-7 455,-7 429,-7 414,8 414,35 v 263 c 0,90 -34,131 -111,131 -89,0 -146,-61 -146,-152 V 35 C 157,8 143,-7 116,-7 Z"
       id="path2"
       sodipodi:nodetypes="ssssscssssssssss" />
  </g>
</svg>
