<?xml version="1.0" encoding="UTF-8" standalone="no"?>
<svg
   version="1.1"
   viewBox="-10 0 372 1000"
   id="svg7739"
   sodipodi:docname="r_Elettronike-Regular.svg"
   inkscape:version="1.2.2 (b0a8486541, 2022-12-01)"
   xmlns:inkscape="http://www.inkscape.org/namespaces/inkscape"
   xmlns:sodipodi="http://sodipodi.sourceforge.net/DTD/sodipodi-0.dtd"
   xmlns="http://www.w3.org/2000/svg"
   xmlns:svg="http://www.w3.org/2000/svg">
  <defs
     id="defs7743" />
  <sodipodi:namedview
     id="namedview7741"
     pagecolor="#ffffff"
     bordercolor="#000000"
     borderopacity="0.25"
     inkscape:showpageshadow="2"
     inkscape:pageopacity="0.0"
     inkscape:pagecheckerboard="0"
     inkscape:deskcolor="#d1d1d1"
     showgrid="true"
     showguides="true"
     inkscape:zoom="2.2203153"
     inkscape:cx="141.42136"
     inkscape:cy="470.42868"
     inkscape:window-width="1920"
     inkscape:window-height="1043"
     inkscape:window-x="0"
     inkscape:window-y="0"
     inkscape:window-maximized="1"
     inkscape:current-layer="g7737">
    <inkscape:grid
       type="xygrid"
       id="grid7862" />
    <sodipodi:guide
       position="86,637.66407"
       orientation="1,0"
       id="guide7864"
       inkscape:locked="false" />
    <sodipodi:guide
       position="165,599"
       orientation="1,0"
       id="guide7866"
       inkscape:locked="false" />
    <sodipodi:guide
       position="327,696"
       orientation="1,0"
       id="guide7868"
       inkscape:locked="false" />
    <sodipodi:guide
       position="125,693"
       orientation="0,-1"
       id="guide7870"
       inkscape:locked="false" />
  </sodipodi:namedview>
  <g
     transform="matrix(1 0 0 -1 0 800)"
     id="g7737">
    <path
       fill="currentColor"
       d="M 117,-7 C 90,-7 76,8 76,35 v 417 c 0,27 14,41 39,41 26,0 40,-14 40,-41 V 429.86819 C 199.85184,477.2915 240,490 317,493 c 20,2 33,-8 34,-32 2,-23 -19.59217,-58.74786 -45.59217,-60.74786 l -16,-2 C 198.40783,390.25214 158,361.87052 158,277 V 35 C 158,8 143,-7 117,-7 Z"
       id="path7735"
       sodipodi:nodetypes="ssssscccccsss" />
  </g>
</svg>
